{"glyphs":{":":{"x_min":0,"x_max":232,"ha":232,"o":""},"$":{"x_min":0,"x_max":579,"ha":579,"o":"m 404 120 l 404 293 l 49 293 l 49 701 l 250 701 l 250 774 l 332 774 l 332 701 l 530 701 l 530 581 l 184 581 l 184 408 l 530 408 l 530 0 l 332 0 l 332 -82 l 250 -82 l 250 0 l 49 0 l 49 120 z"},"?":{"x_min":0,"x_max":579,"ha":579,"o":"m 49 182 l 49 408 l 404 408 l 404 581 l 49 581 l 49 701 l 530 701 l 530 293 l 184 293 l 184 182 z m 184 126 l 184 0 l 49 0 l 49 126 z"},"<":{"x_min":0,"x_max":444,"ha":444,"o":"m 49 496 l 396 627 l 396 513 l 140 400 l 396 255 l 396 141 l 49 311 z"},"'":{"x_min":0,"x_max":194,"ha":194,"o":"m 146 701 l 146 505 l 49 505 l 49 701 z"},"=":{"x_min":0,"x_max":444,"ha":444,"o":""},"a":{"x_min":0,"x_max":579,"ha":579,"o":""},"L":{"x_min":0,"x_max":579,"ha":579,"o":"m 184 120 l 530 120 l 530 0 l 49 0 l 49 701 l 184 701 z"},"3":{"x_min":0,"x_max":579,"ha":579,"o":"m 49 581 l 49 701 l 530 701 l 530 0 l 49 0 l 49 120 l 404 120 l 404 293 l 49 293 l 49 408 l 404 408 l 404 581 z"},";":{"x_min":0,"x_max":232,"ha":232,"o":""},"J":{"x_min":0,"x_max":579,"ha":579,"o":"m 184 302 l 184 120 l 404 120 l 404 701 l 530 701 l 530 0 l 49 0 l 49 302 z"},"V":{"x_min":0,"x_max":579,"ha":579,"o":"m 404 701 l 530 701 l 377 0 l 213 0 l 49 701 l 184 701 l 289 162 z"},"\"":{"x_min":0,"x_max":341,"ha":341,"o":""},"7":{"x_min":0,"x_max":579,"ha":579,"o":"m 404 581 l 49 581 l 49 701 l 530 701 l 530 0 l 404 0 z"},"S":{"x_min":0,"x_max":579,"ha":579,"o":"m 49 293 l 49 701 l 530 701 l 530 581 l 184 581 l 184 408 l 530 408 l 530 0 l 49 0 l 49 120 l 404 120 l 404 293 z"},"}":{"x_min":0,"x_max":354,"ha":354,"o":"m 305 349 l 250 310 l 250 62 l 200 0 l 49 0 l 49 120 l 124 120 l 124 314 l 157 352 l 124 397 l 124 581 l 49 581 l 49 701 l 200 701 l 250 640 l 250 400 z"},"Z":{"x_min":0,"x_max":579,"ha":579,"o":"m 366 581 l 49 581 l 49 701 l 530 701 l 530 581 l 219 120 l 530 120 l 530 0 l 49 0 l 49 120 z"},"x":{"x_min":0,"x_max":581,"ha":581,"o":""},")":{"x_min":0,"x_max":299,"ha":299,"o":"m 49 120 l 124 120 l 124 581 l 49 581 l 49 701 l 200 701 l 250 640 l 250 62 l 200 0 l 49 0 z"},"&":{"x_min":0,"x_max":579,"ha":579,"o":"m 184 293 l 184 120 l 404 120 l 404 293 z m 404 408 l 404 537 l 530 537 l 530 0 l 49 0 l 49 701 l 530 701 l 530 581 l 184 581 l 184 408 z"},"_":{"x_min":0,"x_max":549,"ha":549,"o":"m 500 3 l 500 -59 l 49 -59 l 49 3 z"},"v":{"x_min":0,"x_max":579,"ha":579,"o":""},"O":{"x_min":0,"x_max":579,"ha":579,"o":"m 530 701 l 530 0 l 49 0 l 49 701 z m 404 581 l 184 581 l 184 120 l 404 120 z"},"(":{"x_min":0,"x_max":299,"ha":299,"o":"m 250 0 l 99 0 l 49 62 l 49 640 l 100 701 l 250 701 l 250 581 l 175 581 l 175 120 l 250 120 z"},"C":{"x_min":0,"x_max":579,"ha":579,"o":"m 184 120 l 530 120 l 530 0 l 49 0 l 49 701 l 530 701 l 530 581 l 184 581 z"},"W":{"x_min":0,"x_max":781,"ha":781,"o":"m 391 320 l 333 0 l 174 0 l 49 701 l 187 701 l 253 232 l 324 701 l 457 701 l 528 232 l 594 701 l 732 701 l 607 0 l 447 0 z"},"A":{"x_min":0,"x_max":579,"ha":579,"o":"m 404 293 l 184 293 l 184 0 l 49 0 l 49 701 l 530 701 l 530 0 l 404 0 z m 184 581 l 184 408 l 404 408 l 404 581 z"},"f":{"x_min":0,"x_max":579,"ha":579,"o":""},"Q":{"x_min":0,"x_max":579,"ha":579,"o":"m 404 127 l 404 581 l 184 581 l 184 120 l 292 120 l 246 206 l 364 206 z m 356 0 l 49 0 l 49 701 l 530 701 l 530 0 l 468 0 l 527 -117 l 418 -117 z"},"w":{"x_min":0,"x_max":781,"ha":781,"o":""},"-":{"x_min":0,"x_max":352,"ha":352,"o":"m 49 408 l 303 408 l 303 293 l 49 293 z"},"E":{"x_min":0,"x_max":579,"ha":579,"o":"m 184 581 l 184 408 l 530 408 l 530 293 l 184 293 l 184 120 l 530 120 l 530 0 l 49 0 l 49 701 l 530 701 l 530 581 z"},"s":{"x_min":0,"x_max":579,"ha":579,"o":""},">":{"x_min":0,"x_max":444,"ha":444,"o":"m 396 311 l 49 141 l 49 255 l 304 400 l 49 513 l 49 627 l 396 496 z"},"l":{"x_min":0,"x_max":579,"ha":579,"o":""},"8":{"x_min":0,"x_max":579,"ha":579,"o":"m 530 701 l 530 0 l 49 0 l 49 701 z m 184 293 l 184 120 l 404 120 l 404 293 z m 184 581 l 184 408 l 404 408 l 404 581 z"},"\\":{"x_min":0,"x_max":479,"ha":479,"o":"m 49 701 l 184 701 l 430 0 l 295 0 z"},"e":{"x_min":0,"x_max":579,"ha":579,"o":""},"b":{"x_min":0,"x_max":579,"ha":579,"o":""},"%":{"x_min":0,"x_max":764,"ha":764,"o":""},"m":{"x_min":0,"x_max":638,"ha":638,"o":""},"#":{"x_min":0,"x_max":579,"ha":579,"o":"m 333 185 l 246 185 l 246 0 l 111 0 l 111 185 l 49 185 l 49 299 l 111 299 l 111 411 l 49 411 l 49 525 l 111 525 l 111 701 l 246 701 l 246 525 l 333 525 l 333 701 l 468 701 l 468 525 l 530 525 l 530 411 l 468 411 l 468 299 l 530 299 l 530 185 l 468 185 l 468 0 l 333 0 z m 246 299 l 333 299 l 333 411 l 246 411 z"},",":{"x_min":0,"x_max":232,"ha":232,"o":"m 109 0 l 49 0 l 49 126 l 184 126 l 184 0 l 129 -117 l 53 -117 z"},"n":{"x_min":0,"x_max":579,"ha":579,"o":""},"h":{"x_min":0,"x_max":579,"ha":579,"o":""},"z":{"x_min":0,"x_max":579,"ha":579,"o":""},"B":{"x_min":0,"x_max":579,"ha":579,"o":"m 530 701 l 530 436 l 471 348 l 530 260 l 530 0 l 49 0 l 49 701 z m 184 293 l 184 120 l 404 120 l 404 293 z m 184 581 l 184 408 l 404 408 l 404 581 z"},"K":{"x_min":0,"x_max":579,"ha":579,"o":"m 184 0 l 49 0 l 49 701 l 184 701 l 184 408 l 404 701 l 530 701 l 295 359 l 530 0 l 404 0 l 184 293 z"},"R":{"x_min":0,"x_max":579,"ha":579,"o":"m 184 581 l 184 408 l 404 408 l 404 581 z m 49 0 l 49 701 l 530 701 l 530 293 l 366 293 l 530 0 l 404 0 l 231 293 l 184 293 l 184 0 z"},"T":{"x_min":0,"x_max":579,"ha":579,"o":"m 231 581 l 49 581 l 49 701 l 530 701 l 530 581 l 366 581 l 366 0 l 231 0 z"},"P":{"x_min":0,"x_max":579,"ha":579,"o":"m 184 0 l 49 0 l 49 701 l 530 701 l 530 293 l 184 293 z m 184 581 l 184 408 l 404 408 l 404 581 z"},"|":{"x_min":0,"x_max":168,"ha":168,"o":"m 119 810 l 119 -76 l 49 -76 l 49 810 z"},"t":{"x_min":0,"x_max":579,"ha":579,"o":""},"M":{"x_min":0,"x_max":638,"ha":638,"o":"m 184 0 l 49 0 l 49 701 l 184 701 l 320 317 l 462 701 l 589 701 l 589 0 l 462 0 l 462 293 l 364 0 l 285 0 l 184 293 z"},"g":{"x_min":0,"x_max":579,"ha":579,"o":""},"j":{"x_min":0,"x_max":579,"ha":579,"o":""},"i":{"x_min":0,"x_max":232,"ha":232,"o":""},"y":{"x_min":0,"x_max":579,"ha":579,"o":""},"@":{"x_min":0,"x_max":579,"ha":579,"o":"m 404 293 l 404 396 l 323 396 l 323 293 z m 404 490 l 404 581 l 184 581 l 184 120 l 530 120 l 530 0 l 49 0 l 49 701 l 530 701 l 530 206 l 229 206 l 229 490 z"},".":{"x_min":0,"x_max":232,"ha":232,"o":"m 184 126 l 184 0 l 49 0 l 49 126 z"},"p":{"x_min":0,"x_max":579,"ha":579,"o":""},"X":{"x_min":0,"x_max":581,"ha":581,"o":"m 225 351 l 221 351 l 51 701 l 186 701 l 294 479 l 406 701 l 532 701 l 356 351 l 360 351 l 530 0 l 396 0 l 287 223 l 175 0 l 49 0 z"},"*":{"x_min":0,"x_max":283,"ha":283,"o":"m 123 701 l 123 643 l 76 663 l 49 622 l 105 593 l 64 549 l 99 520 l 137 569 l 178 517 l 210 546 l 178 596 l 234 619 l 213 660 l 167 646 l 167 701 z"},"Y":{"x_min":0,"x_max":579,"ha":579,"o":"m 354 351 l 354 0 l 219 0 l 219 351 l 49 701 l 184 701 l 292 479 l 404 701 l 530 701 z"},"c":{"x_min":0,"x_max":579,"ha":579,"o":""},"!":{"x_min":0,"x_max":232,"ha":232,"o":"m 49 191 l 49 701 l 184 701 l 184 191 z m 184 126 l 184 0 l 49 0 l 49 126 z"},"/":{"x_min":0,"x_max":479,"ha":479,"o":"m 184 0 l 49 0 l 295 701 l 430 701 z"},"[":{"x_min":0,"x_max":299,"ha":299,"o":"m 250 0 l 49 0 l 49 701 l 250 701 l 250 581 l 175 581 l 175 120 l 250 120 z"},"6":{"x_min":0,"x_max":579,"ha":579,"o":"m 184 581 l 184 408 l 530 408 l 530 0 l 49 0 l 49 701 l 530 701 l 530 581 z m 184 293 l 184 120 l 404 120 l 404 293 z"},"r":{"x_min":0,"x_max":579,"ha":579,"o":""},"2":{"x_min":0,"x_max":579,"ha":579,"o":"m 530 120 l 530 0 l 49 0 l 49 408 l 404 408 l 404 581 l 49 581 l 49 701 l 530 701 l 530 293 l 184 293 l 184 120 z"},"{":{"x_min":0,"x_max":354,"ha":354,"o":"m 104 400 l 104 640 l 154 701 l 305 701 l 305 581 l 230 581 l 230 397 l 197 352 l 230 314 l 230 120 l 305 120 l 305 0 l 154 0 l 104 62 l 104 310 l 49 349 z"},"9":{"x_min":0,"x_max":579,"ha":579,"o":"m 404 120 l 404 293 l 49 293 l 49 701 l 530 701 l 530 0 l 49 0 l 49 120 z m 184 581 l 184 408 l 404 408 l 404 581 z"}," ":{"x_min":0,"x_max":248,"ha":248,"o":""},"I":{"x_min":0,"x_max":232,"ha":232,"o":"m 184 0 l 49 0 l 49 701 l 184 701 z"},"H":{"x_min":0,"x_max":579,"ha":579,"o":"m 184 0 l 49 0 l 49 701 l 184 701 l 184 408 l 404 408 l 404 701 l 530 701 l 530 0 l 404 0 l 404 293 l 184 293 z"},"4":{"x_min":0,"x_max":579,"ha":579,"o":"m 49 293 l 49 701 l 184 701 l 184 408 l 404 408 l 404 701 l 530 701 l 530 0 l 404 0 l 404 293 z"},"~":{"x_min":0,"x_max":432,"ha":432,"o":"m 49 390 l 89 316 q 139 373 216 326 q 293 280 383 383 l 336 440 q 270 380 211 422 q 152 464 49 390 z"},"D":{"x_min":0,"x_max":579,"ha":579,"o":"m 49 0 l 49 701 l 479 701 l 530 640 l 530 62 l 480 0 z m 404 581 l 184 581 l 184 120 l 404 120 z"},"^":{"x_min":0,"x_max":584,"ha":584,"o":"m 403 701 l 535 354 l 421 354 l 308 610 l 163 354 l 49 354 l 219 701 z"},"0":{"x_min":0,"x_max":579,"ha":579,"o":"m 530 701 l 530 0 l 49 0 l 49 701 z m 404 581 l 184 581 l 184 120 l 404 120 z"},"F":{"x_min":0,"x_max":579,"ha":579,"o":"m 184 0 l 49 0 l 49 701 l 530 701 l 530 581 l 184 581 l 184 408 l 530 408 l 530 293 l 184 293 z"},"`":{"x_min":0,"x_max":221,"ha":221,"o":"m 49 822 l 99 719 l 172 719 l 123 822 z"},"k":{"x_min":0,"x_max":579,"ha":579,"o":""},"u":{"x_min":0,"x_max":579,"ha":579,"o":""},"]":{"x_min":0,"x_max":299,"ha":299,"o":"m 49 120 l 124 120 l 124 581 l 49 581 l 49 701 l 250 701 l 250 0 l 49 0 z"},"U":{"x_min":0,"x_max":579,"ha":579,"o":"m 404 701 l 530 701 l 530 0 l 49 0 l 49 701 l 184 701 l 184 120 l 404 120 z"},"o":{"x_min":0,"x_max":579,"ha":579,"o":""},"N":{"x_min":0,"x_max":579,"ha":579,"o":"m 184 0 l 49 0 l 49 701 l 184 701 l 404 308 l 404 701 l 530 701 l 530 0 l 404 0 l 184 405 z"},"+":{"x_min":0,"x_max":444,"ha":444,"o":"m 285 293 l 285 169 l 170 169 l 170 293 l 49 293 l 49 408 l 170 408 l 170 516 l 285 516 l 285 408 l 396 408 l 396 293 z"},"G":{"x_min":0,"x_max":579,"ha":579,"o":"m 264 408 l 530 408 l 530 0 l 49 0 l 49 701 l 530 701 l 530 581 l 184 581 l 184 120 l 404 120 l 404 293 l 264 293 z"},"q":{"x_min":0,"x_max":579,"ha":579,"o":""},"d":{"x_min":0,"x_max":579,"ha":579,"o":""},"1":{"x_min":0,"x_max":232,"ha":232,"o":"m 184 0 l 49 0 l 49 701 l 184 701 z"},"5":{"x_min":0,"x_max":579,"ha":579,"o":"m 49 293 l 49 701 l 530 701 l 530 581 l 184 581 l 184 408 l 530 408 l 530 0 l 49 0 l 49 120 l 404 120 l 404 293 z"}}}
